<?xml version="1.0" encoding="utf-8"?>
<!-- Svg Vector Icons : http://www.onlinewebfonts.com/icon -->
<!DOCTYPE svg PUBLIC "-//W3C//DTD SVG 1.1//EN" "http://www.w3.org/Graphics/SVG/1.1/DTD/svg11.dtd">
<svg version="1.1" xmlns="http://www.w3.org/2000/svg" xmlns:xlink="http://www.w3.org/1999/xlink" x="0px" y="0px" viewBox="0 0 256 256" enable-background="new 0 0 256 256" xml:space="preserve">
<metadata> Svg Vector Icons : http://www.onlinewebfonts.com/icon </metadata>
<g><g><g><path fill="#000000" d="M39.2,32.7C18.9,53,17.9,54.1,17.9,55.7c0,1.4,0.3,2,1.8,3.4c3.5,3.2,2.9,3.6,19.6-13.1l14.8-14.8l2.2,2.2l2.2,2.2L43.7,50.4C30,64.2,29,65.3,29,66.8c0,2.3,2.8,5,5.1,5c1.5,0,2.7-1.1,16.4-14.8l14.8-14.8l2.3,2.3l2.3,2.3L54.9,61.8C38.3,78.4,38.8,77.8,41.7,81c1.8,2,3.5,2.6,5,1.8c0.6-0.3,7.5-7,15.4-14.9l14.4-14.4l2.2,2.2l2.2,2.2L66,72.9C49.1,89.8,49.7,88.9,53.1,92.4c3.5,3.5,2.6,4,19.5-12.8l14.9-14.9l2.2,2.2l2.2,2.2L77.5,83.5c-7.9,7.9-14.6,14.9-14.9,15.6c-0.6,1.7-0.1,3.1,2,4.9c3.3,2.9,2.8,3.2,19.4-13.3L98.9,76l2.2,2.2l2.2,2.2L88.5,95.1c-13.8,13.8-14.8,14.9-14.8,16.4c0,2.3,2.8,5.1,5.1,5.1c1.5,0,2.7-1.2,16.4-14.8L109.9,87l2.2,2.2l2.2,2.2l-9.8,9.9c-5.9,5.9-8.9,9.2-7.6,8.3c6-4.2,34-26.9,34-27.6c0-0.2-15.8-16.1-35.2-35.5L60.6,11.4L39.2,32.7z"/><path fill="#000000" d="M222.2,40.8c-20.8,29.8-22.7,32.7-21.1,31c1.4-1.4,18.1-20.3,21.4-24.2c7-8.3,13.9-18.9,16.3-25.1c1.2-3.1,2.3-7.8,1.8-7.8C240.5,14.6,232.3,26.4,222.2,40.8z"/><path fill="#000000" d="M232.9,15.7c-5.4,2-14.6,7.8-22.5,14.1c-2.6,2.1-14.2,12.1-25.6,22.3c-40.1,35.7-59.6,52.1-79.6,67.2c-13.2,9.9-20.9,15.1-30.4,20.4l-4.8,2.7l-1.6-2.9c-2.4-4.2-8.3-9.8-12.5-12c-9.4-4.7-19.6-4.7-29.1,0c-4.7,2.3-10.6,8.2-13.1,12.9c-9.4,17.9,0.2,39.9,19.7,45c4.1,1.1,11.4,1.1,15.3,0.1c8.8-2.3,16.1-8,20.2-15.8l1.6-2.9l15.4-7.2c18.3-8.5,17.5-8.2,17.2-7.2c-0.1,0.4-3.5,7.7-7.5,16.2L88.3,184l-3.2,1.7c-4.2,2.1-10.9,8.8-13,12.7c-2.7,5.2-3.6,9-3.6,15.2c0,4.7,0.2,6.1,1.2,9.2c1.7,5,4.1,9,7.8,12.6c3.6,3.6,7.6,6.1,12.6,7.8c5.1,1.7,13.1,1.8,18.2,0.2c5.4-1.7,9-3.9,13.4-8.3c4.3-4.3,6.6-8.3,8.1-13.9c1.1-4,1.1-11.7,0-15.7c-2-7.3-7.7-15-13.8-18.6c-1.7-1-3-2-3-2.3c0-1,5.7-10.7,10.5-18c10.2-15.3,28.1-38,50.1-63.5c3-3.6,13.6-18.2,31.4-43.8c32.1-46,30.9-44.2,30.1-44.2C234.7,15.1,233.7,15.4,232.9,15.7z M135.3,112.5c4.5,1.2,7.5,5.4,7.1,10.3c-0.3,3.4-2,5.9-5.3,7.5c-7.5,3.7-15.5-2.9-13.3-11c0.8-3.3,3.6-6.1,6.9-6.9C132.7,111.9,133.1,111.9,135.3,112.5z M44.4,135c11.1,1.8,18.9,12.6,16.9,23.6c-2.4,13.9-17.7,21.1-30.1,14.4c-3-1.6-7.1-6-8.5-9.1c-4.6-10.1-0.5-22,9.2-26.8C36.7,134.7,39.7,134.2,44.4,135z M106.9,194.4c5.1,2,9.6,6.5,11.6,11.6c0.6,1.5,1.1,4.1,1.2,6.3c0.5,8.5-4,16-11.8,19.7c-3,1.4-3.4,1.5-8.4,1.5c-5,0-5.5-0.1-8.4-1.5c-5.4-2.5-9.2-6.8-11-12.2c-0.8-2.4-1-3.7-0.8-7.3c0.1-3.7,0.4-4.8,1.6-7.5c2.5-5.4,8-10.1,13.3-11.3C97.3,192.9,104.1,193.3,106.9,194.4z"/><path fill="#000000" d="M167.8,129.4c-13.8,16.7-32.7,41.3-32.7,42.7c0,1.2,3-1.6,15.9-14.5l14.8-14.8l2.3,2.3l2.3,2.3l-14.9,14.9c-16.6,16.6-16.1,16-13.2,19.2c1.8,2,3.5,2.6,5,1.8c0.6-0.3,7.5-7,15.4-14.9l14.4-14.4l2.2,2.2l2.2,2.2l-14.9,14.9c-16.8,16.9-16.3,16.1-12.8,19.5c3.5,3.5,2.6,4,19.5-12.8l14.9-14.9l2.3,2.3l2.3,2.3l-14.9,14.8C161,201.6,161.4,201,165,204.2c3.6,3.4,2.9,3.8,19.7-13l14.8-14.8l2.2,2.2l2.2,2.2L189,195.7c-13.7,13.8-14.8,14.9-14.8,16.4c0,2.3,2.8,5,5.1,5c1.5,0,2.7-1.1,16.4-14.8l14.8-14.8l2.2,2.2l2.2,2.2l-14.8,14.8c-16.5,16.6-16.2,16.1-13.3,19.4c1.8,2.1,3.2,2.6,4.9,2c0.7-0.3,7.8-6.9,15.7-14.9l14.4-14.4l2.2,2.2l2.2,2.2l-14.9,14.9c-16.8,16.9-16.3,16.1-12.8,19.5c3.5,3.6,1.9,4.8,26.1-19.4l21.5-21.4l-36.7-36.6l-36.7-36.6L167.8,129.4z"/></g></g></g>
</svg>